<svg id="图层_1" data-name="图层 1" xmlns="http://www.w3.org/2000/svg" xmlns:xlink="http://www.w3.org/1999/xlink" viewBox="0 0 272.13 272.13"><defs><style>.cls-1{fill:url(#未命名的渐变_71);}.cls-2{fill:url(#未命名的渐变_14);}.cls-3{fill:url(#未命名的渐变_26);}.cls-4{fill:url(#未命名的渐变_19);}.cls-5{fill:url(#未命名的渐变_22);}.cls-6{fill:url(#未命名的渐变_22-2);}.cls-7{fill:url(#未命名的渐变_63);}.cls-8{fill:url(#未命名的渐变_79);}.cls-9{fill:url(#未命名的渐变_81);}.cls-10{fill:url(#未命名的渐变_83);}</style><linearGradient id="未命名的渐变_71" x1="192.01" y1="352.57" x2="341.96" y2="352.57" gradientUnits="userSpaceOnUse"><stop offset="0" stop-color="#22c1f9"/><stop offset="0.25" stop-color="#20c5f5"/><stop offset="0.52" stop-color="#18d2e8"/><stop offset="0.8" stop-color="#0ce6d2"/><stop offset="1" stop-color="#01f9be"/></linearGradient><linearGradient id="未命名的渐变_14" x1="146.82" y1="358.33" x2="233.87" y2="207.55" gradientUnits="userSpaceOnUse"><stop offset="0" stop-color="#ffe70c"/><stop offset="0.19" stop-color="#ffd815"/><stop offset="1" stop-color="#fe9d3a"/></linearGradient><linearGradient id="未命名的渐变_26" x1="192.98" y1="227.99" x2="342.93" y2="227.99" gradientUnits="userSpaceOnUse"><stop offset="0" stop-color="#fe7db3"/><stop offset="1" stop-color="#ff604f"/></linearGradient><linearGradient id="未命名的渐变_19" x1="192.01" y1="352.5" x2="341.96" y2="352.5" gradientUnits="userSpaceOnUse"><stop offset="0" stop-color="#01f9be"/><stop offset="0.01" stop-color="#03f9bf"/><stop offset="0.23" stop-color="#2cfbd3"/><stop offset="0.44" stop-color="#4cfce3"/><stop offset="0.64" stop-color="#63fdee"/><stop offset="0.83" stop-color="#71fef5"/><stop offset="1" stop-color="#76fef7"/></linearGradient><linearGradient id="未命名的渐变_22" x1="268.15" y1="358.71" x2="395.07" y2="231.79" gradientUnits="userSpaceOnUse"><stop offset="0" stop-color="#3098e2"/><stop offset="0.01" stop-color="#3197e2"/><stop offset="0.33" stop-color="#5767dd"/><stop offset="0.62" stop-color="#7344d9"/><stop offset="0.85" stop-color="#842fd7"/><stop offset="1" stop-color="#8a27d6"/></linearGradient><linearGradient id="未命名的渐变_22-2" x1="273.97" y1="364.65" x2="401.29" y2="237.33" xlink:href="#未命名的渐变_22"/><linearGradient id="未命名的渐变_63" x1="238.05" y1="417.6" x2="312.8" y2="342.85" gradientUnits="userSpaceOnUse"><stop offset="0" stop-color="#01f9be"/><stop offset="0.29" stop-color="#08edca"/><stop offset="0.81" stop-color="#1aceeb"/><stop offset="1" stop-color="#22c1f9"/></linearGradient><linearGradient id="未命名的渐变_79" x1="332.27" y1="-4.38" x2="378.74" y2="-84.87" gradientTransform="translate(617.73 156.3) rotate(180)" gradientUnits="userSpaceOnUse"><stop offset="0" stop-color="#fe7db3"/><stop offset="0.17" stop-color="#fe7bab"/><stop offset="0.42" stop-color="#fe7597"/><stop offset="0.72" stop-color="#ff6b75"/><stop offset="1" stop-color="#ff604f"/></linearGradient><linearGradient id="未命名的渐变_81" x1="490.41" y1="243.33" x2="594.41" y2="183.29" gradientTransform="translate(387.02 -240.72) rotate(90)" gradientUnits="userSpaceOnUse"><stop offset="0" stop-color="#ffe70c"/><stop offset="0.21" stop-color="#ffe10f"/><stop offset="0.47" stop-color="#ffd219"/><stop offset="0.76" stop-color="#feb829"/><stop offset="1" stop-color="#fe9d3a"/></linearGradient><linearGradient id="未命名的渐变_83" x1="77.01" y1="129.87" x2="151.92" y2="54.97" gradientTransform="translate(265.31 395.32) rotate(-90)" gradientUnits="userSpaceOnUse"><stop offset="0" stop-color="#3098e2"/><stop offset="0.33" stop-color="#4b76de"/><stop offset="1" stop-color="#8a27d6"/></linearGradient></defs><title>LOGO大0</title><path class="cls-1" d="M341.4,380.28a35.43,35.43,0,0,0-9.32-18.42c-8.09-8.32-19.71-11.5-30.15-10.18l-.36.12c-2.09.54-4.31,1.07-6.67,1.52a29.58,29.58,0,0,0-6,2.8A56.06,56.06,0,0,1,276.06,362c-21,6.35-48.55.11-63.87-23.1A54.19,54.19,0,0,1,205,323.66c-2.81-10.9-5.4-25.6,3.75-44.28,0,0-22.69,30.66-15.25,68.41,9.16,48.62,54,91.16,118.39,74.17a44,44,0,0,0,18-9.25C337.1,406.34,344,395.87,341.4,380.28Z" transform="translate(-131.63 -154.26)"/><path class="cls-2" d="M135.42,336.62a44.34,44.34,0,0,0,9.22,18c6.33,7.25,16.76,14.2,32.29,11.57,28.25-5.43,34.52-35.88,24.06-52.67a53.88,53.88,0,0,1-5.85-12.94c-6.32-21.09-.11-48.74,23-64.13a53.91,53.91,0,0,1,15.17-7.21c10.85-2.81,25.49-5.42,44.1,3.77,0,0-30.54-22.79-68.13-15.31C160.86,226.93,118.5,272,135.42,336.62Z" transform="translate(-131.63 -154.26)"/><path class="cls-3" d="M223,158.6a44,44,0,0,0-18,9.26c-7.23,6.36-14.14,16.83-11.53,32.43C199,228.65,229.28,235,246,224.45a52.81,52.81,0,0,1,12.88-5.88c21-6.35,48.55-.11,63.87,23.11a54.49,54.49,0,0,1,7.19,15.23c2.8,10.89,5.39,25.59-3.76,44.28,0,0,22.69-30.66,15.25-68.41C332.27,184.15,287.41,141.62,223,158.6Z" transform="translate(-131.63 -154.26)"/><path class="cls-4" d="M301.93,351.68a34.11,34.11,0,0,0-7,1.64c2.36-.45,4.58-1,6.67-1.52Z" transform="translate(-131.63 -154.26)"/><path class="cls-5" d="M294.9,353.32c-9.95,1.86-22.39,2.14-37.43-5.29A94.49,94.49,0,0,0,281.54,360a54.09,54.09,0,0,0,7.4-3.85A29.58,29.58,0,0,1,294.9,353.32Z" transform="translate(-131.63 -154.26)"/><path class="cls-6" d="M399.47,244.47a44.32,44.32,0,0,0-9.22-18.05c-6.34-7.25-16.76-14.2-32.3-11.57-28.24,5.43-34.52,35.88-24.05,52.67a53.88,53.88,0,0,1,5.85,12.94c6.32,21.09.1,48.74-23,64.13a54.11,54.11,0,0,1-14.81,7.09c10.44-1.32,22.06,1.86,30.15,10.18C377.71,350,415.63,306.2,399.47,244.47Z" transform="translate(-131.63 -154.26)"/><path class="cls-7" d="M199.85,368.73s14.92,32.75,53.78,21.08c4.09-2.06,14.46-3.44,29.65-25,5.4-7.68,13.79-12.92,23.14-13.4a28.41,28.41,0,0,1,14.42,2.87s25.82,9.92,20,41.34c-6.62,26.91-49.57,38.85-87.76,24.94S203.56,376.15,199.85,368.73Z" transform="translate(-131.63 -154.26)"/><path class="cls-8" d="M334.82,211.92S319.9,179.16,281,190.84c-4.1,2.06-14.46,3.44-29.65,25-5.4,7.68-13.8,12.92-23.14,13.39a28.28,28.28,0,0,1-14.42-2.86s-25.82-9.92-20-41.34c6.62-26.91,49.57-38.85,87.75-24.94S331.11,204.5,334.82,211.92Z" transform="translate(-131.63 -154.26)"/><path class="cls-9" d="M189.05,224.37s-32.62,15-21,54c2.06,4.12,3.43,14.53,24.93,29.78,7.64,5.42,12.86,13.85,13.33,23.24a28.57,28.57,0,0,1-2.85,14.47s-9.88,25.93-41.17,20.08c-26.81-6.64-38.7-49.77-24.84-88.11S181.66,228.1,189.05,224.37Z" transform="translate(-131.63 -154.26)"/><path class="cls-10" d="M346.33,356.71s32.62-15,21-54c-2.06-4.12-3.43-14.53-24.93-29.78-7.64-5.42-12.86-13.85-13.33-23.24a28.57,28.57,0,0,1,2.85-14.47s9.88-25.93,41.17-20.08c26.8,6.64,38.69,49.77,24.84,88.11S353.72,353,346.33,356.71Z" transform="translate(-131.63 -154.26)"/></svg>