<?xml version="1.0" encoding="UTF-8"?>
<svg width="62px" height="62px" viewBox="0 0 62 62" version="1.1" xmlns="http://www.w3.org/2000/svg" xmlns:xlink="http://www.w3.org/1999/xlink">
    <title>preferences-system</title>
    <defs>
        <linearGradient x1="50%" y1="0%" x2="50%" y2="100%" id="linearGradient-1">
            <stop stop-color="#E8E8E8" offset="0%"></stop>
            <stop stop-color="#B3B3B3" offset="100%"></stop>
        </linearGradient>
        <linearGradient x1="50.0016241%" y1="-13.1184969%" x2="50.0016241%" y2="111.929114%" id="linearGradient-2">
            <stop stop-color="#E0E0E0" offset="0%"></stop>
            <stop stop-color="#B8B8B8" offset="100%"></stop>
        </linearGradient>
        <linearGradient x1="50%" y1="0%" x2="50%" y2="100%" id="linearGradient-3">
            <stop stop-color="#D7D7D7" offset="0%"></stop>
            <stop stop-color="#FDFDFD" offset="100%"></stop>
        </linearGradient>
    </defs>
    <g id="页面-1" stroke="none" stroke-width="1" fill="none" fill-rule="evenodd">
        <g id="preferences-system">
            <rect id="矩形" x="0" y="0" width="62" height="62"></rect>
            <rect id="矩形" fill="url(#linearGradient-1)" x="3" y="2" width="56" height="56" rx="13"></rect>
            <circle id="椭圆形" fill="#49494E" cx="31" cy="30" r="21.6774194"></circle>
            <circle id="椭圆形" fill="#4A4C4A" fill-rule="nonzero" cx="30.2680352" cy="29.0545455" r="15.483871"></circle>
            <ellipse id="椭圆形" fill="#5B6172" fill-rule="nonzero" cx="30.2680352" cy="29.4416422" rx="11.6129032" ry="11.2258065"></ellipse>
            <path d="M26.5929955,19.1190616 C27.0378243,19.1190616 27.4094541,19.4603529 27.4504949,19.9065579 L28.3784474,29.9954703 C28.4228235,30.4779379 28.250803,30.9303394 27.9427464,31.2551861 C29.1600946,31.7176795 30.0225038,32.873825 30.0225038,34.2267506 C30.0225038,34.3683676 30.0130546,34.5078284 29.9947384,34.6445642 C30.4010029,34.5461923 30.8445049,34.6014277 31.2321247,34.8339027 C31.2461862,34.842336 31.2601233,34.8509782 31.2739314,34.8598264 L39.9662929,40.4298559 C40.3269221,40.6609456 40.4398499,41.1389821 40.2212087,41.5089445 C39.9973355,41.8877599 39.5275309,42.0379363 39.1278044,41.8584589 L29.6420151,37.5993346 C29.2402936,37.4189614 28.9543899,37.0847053 28.8222283,36.6962117 C28.2600394,37.1462965 27.5413598,37.4156837 26.7582758,37.4156837 C26.0036516,37.4156837 25.3088355,37.1655215 24.75598,36.7454546 C24.6389441,37.0823679 24.407908,37.3817249 24.079189,37.578874 C24.0394782,37.6026906 23.9987404,37.6247251 23.9570953,37.6449127 L14.4341297,42.2612105 C14.0427483,42.4509342 13.5723366,42.3081486 13.3501495,41.9321864 C13.1298623,41.5594388 13.2367449,41.0782761 13.5937249,40.8356615 L22.3294532,34.8985926 C22.6935203,34.6511614 23.1215882,34.5729349 23.5220957,34.6459926 C23.503591,34.5092114 23.4940478,34.3690697 23.4940478,34.2267506 C23.4940478,32.8627292 24.3706608,31.6987289 25.6035345,31.2430991 C25.3176273,30.9457645 25.1420944,30.5400063 25.1420944,30.0929472 C25.1420944,30.0590285 25.143127,30.0251178 25.1451907,29.991263 L25.7598096,19.9084442 C25.7868488,19.4648654 26.1518415,19.1190616 26.5929955,19.1190616 Z" id="形状结合" fill="#7E8094" fill-rule="nonzero" transform="translate(26.784164, 30.731965) scale(-1, 1) rotate(90.000000) translate(-26.784164, -30.731965) "></path>
            <g id="编组" transform="translate(11.687390, 10.473900)" fill="url(#linearGradient-2)" fill-rule="nonzero">
                <path d="M18.4758388,0.526099707 L18.0035978,0.542085887 L17.7428712,2.72214593 C17.4105038,2.74790964 17.2313884,2.78437133 16.9045581,2.82886519 L16.3061898,0.763078989 L15.8393456,0.83625419 L15.849316,3.00493895 C15.5193316,3.07128898 15.1931584,3.14664372 14.8702443,3.23133314 L14.0326847,1.27764992 L13.5789211,1.40647718 L13.8511863,3.5324395 C13.5294638,3.63898509 13.2117189,3.75514323 12.8982232,3.8800369 L11.8391612,2.06198873 L11.4046023,2.24569522 L11.9314524,4.30080081 C11.712774,4.40415939 11.4963672,4.51217437 11.2823827,4.62477063 L10.0487086,2.94166285 L9.63494898,3.16882118 L10.3702121,5.14160793 C10.076841,5.31996543 9.78879686,5.50748393 9.50805076,5.70262649 L8.08907593,4.19561852 L7.7076016,4.47079617 L8.66976397,6.32383853 C8.39920282,6.53763357 8.13528142,6.7595547 7.87836742,6.98929261 L6.29941182,5.67661964 L5.95409522,5.99601328 L7.12617758,7.70352145 C6.8822715,7.94986209 6.64604433,8.20355748 6.4178291,8.46425004 L4.70500131,7.36275795 L4.40120437,7.72177401 L5.7625301,9.2600423 C5.61013662,9.45792018 5.462115,9.65926264 5.31797463,9.86376595 L3.51131367,8.95209342 L3.24751191,9.34084157 L4.75339856,10.7197691 C4.56949631,11.0184348 4.39507621,11.3227352 4.2303947,11.6322231 L2.34067692,10.9507481 L2.12609596,11.3684815 L3.77812055,12.5469088 C3.63242067,12.8665542 3.49650713,13.1912969 3.37048506,13.5211019 L1.42390666,13.0759376 L1.26239269,13.5165431 L3.03751309,14.4816187 C2.93203886,14.8185386 2.83739277,15.1586952 2.75371812,15.5015735 L0.775599149,15.2965231 L0.669465155,15.7523594 L2.54455161,16.4940539 C2.49965888,16.7438326 2.45997034,16.9957734 2.42610804,17.2494683 L0.44027916,17.2502646 L0.382594975,17.7144977 L2.323829,18.2572376 C2.29862442,18.6099 2.28451777,18.9632553 2.28152961,19.3167889 L0.312609971,19.557667 L0.312609971,20.0257122 L2.30387084,20.3290936 C2.32238339,20.6846276 2.35175992,21.0378432 2.39231583,21.3871686 L0.469568077,21.8635845 L0.526481271,22.3278177 L2.53920724,22.3888013 C2.5839032,22.6404545 2.63442229,22.8910575 2.6907246,23.1404124 L0.827991528,23.8119709 L0.934896514,24.2685626 L2.94376753,24.1206752 C3.04289096,24.460722 3.15292999,24.7975494 3.27371686,25.1306441 L1.50472935,26.0239946 L1.66624332,26.4646001 L3.64821724,26.0735509 C3.78997455,26.4006033 3.94207015,26.722463 4.10354031,27.0386265 L2.44459431,28.1271803 L2.65610007,28.5464246 L4.59575708,27.9305269 C4.72491102,28.1487132 4.85902479,28.3639781 4.99799563,28.5761566 L3.45829048,29.8354266 L3.71209564,30.2302792 L5.58332714,29.4146366 C5.7935523,29.6965211 6.01259702,29.9718384 6.24014184,30.2401869 L4.85962893,31.6824166 L5.16035067,32.0437338 L6.92618413,31.0025046 C7.08929469,31.1728649 7.25597316,31.3398341 7.42611083,31.5033036 L6.10403555,33.3738865 L6.45551132,33.6871844 L8.24289749,32.2396579 C8.48958311,32.4477545 8.74221505,32.6488258 9.00048428,32.842626 L7.91215967,34.8725497 L8.29979319,35.1416403 L9.90643441,33.477636 C10.1304184,33.6239856 10.3578783,33.7650413 10.5886217,33.9006837 L9.6710542,35.9443272 L10.0763679,36.1859434 L11.5530795,34.4259005 C11.8445177,34.5731294 12.1402189,34.7119174 12.4398074,34.8420883 L11.7783843,36.9894118 L12.2106214,37.1792141 L13.4650597,35.2461106 C13.6783952,35.3225748 13.8932714,35.3947488 14.1095561,35.4625883 L13.6765567,37.6762531 L14.1257118,37.8210839 L15.174786,35.7576423 C15.4896234,35.8340363 15.8066214,35.9014014 16.1253835,35.9596534 L15.966165,38.2235953 L16.4299252,38.3128001 L17.2236347,36.1235357 C17.4452087,36.1492074 17.667271,36.1705554 17.8896925,36.1875672 L17.9712161,38.4698311 L18.4418977,38.5109906 L19.0025838,36.2371496 C19.2074235,36.2394614 19.4122886,36.2381587 19.6170815,36.233242 L20.1831295,38.5260997 L20.6538111,38.4856957 L20.7361056,36.1714768 C20.9546555,36.1521128 21.1717509,36.1286762 21.3875234,36.1013408 L22.1943135,38.3287255 L22.6580736,38.2388 L22.4957887,35.9231049 C22.8072693,35.8625814 23.1158499,35.7930359 23.4210661,35.7157795 L24.4994029,37.8364449 L24.9485581,37.6916141 L24.5009187,35.4040533 C24.7066065,35.3370826 24.9109691,35.2661778 25.113892,35.1913789 L26.4144145,37.195426 L26.8458894,37.0048422 L26.1567807,34.7675585 C26.4434493,34.6395648 26.7259477,34.5037561 27.0043369,34.360497 L28.547897,36.2013825 L28.953973,35.9605218 L27.9887442,33.8116352 C28.2068997,33.6804895 28.4214106,33.5450715 28.6324871,33.4045998 L30.3252515,35.1570881 L30.7128851,34.8879975 L29.5615669,32.740674 C29.8037283,32.5552742 30.0403001,32.3641608 30.2714311,32.1666911 L32.1695597,33.7033963 L32.5202732,33.3900985 L31.1128632,31.3960373 C31.265651,31.2465783 31.4159242,31.0939931 31.5627893,30.9386554 L33.4647729,32.0599457 L33.7654771,31.6986286 L32.2726447,30.1389991 C32.4840657,29.8857945 32.6879692,29.6265154 32.8840936,29.3614941 L34.9130279,30.2465085 L35.1668156,29.8516559 L33.4917489,28.481846 C33.6170979,28.2874257 33.7383884,28.090464 33.8555429,27.8910867 L35.9690235,28.5618898 L36.1797583,28.1426455 L34.367753,26.9527561 C34.5169443,26.6568815 34.6572332,26.3566789 34.7884339,26.0525457 L36.9588628,26.4801869 L37.1195969,26.0403715 L35.1799399,25.0593185 C35.2905086,24.7498103 35.3918157,24.4371282 35.4837281,24.1216825 L37.6902534,24.284818 L37.7963873,23.8282263 L35.7490544,23.0888242 C35.7991432,22.8638913 35.8445305,22.6379553 35.8851869,22.4111612 L38.0979326,22.3440904 L38.1556168,21.8791018 L36.0390698,21.3554307 C36.0763358,21.0298018 36.1040302,20.7031668 36.1221179,20.3759406 L38.31261,20.0414031 L38.31261,19.5733579 L36.1460362,19.3088522 C36.1433201,18.9790472 36.1308003,18.651769 36.1091512,18.3270176 L38.2419066,17.7301539 L38.1842224,17.2659208 L36.0038057,17.2651254 C35.9733428,17.0360306 35.9385693,16.8084989 35.8991962,16.5821395 L37.9558161,15.768798 L37.8496821,15.3122063 L35.6831083,15.5370722 C35.6055185,15.2166452 35.5188257,14.9002994 35.4231615,14.5872795 L37.3628185,13.5322436 L37.201322,13.0924283 L35.0785546,13.5772411 C34.9619946,13.2689188 34.8371203,12.9649209 34.7032394,12.6655686 L36.499124,11.3841559 L36.284543,10.967178 L34.2364216,11.7050692 C34.0828365,11.4135233 33.9212437,11.1277692 33.7510999,10.8467649 L35.3778044,9.35651602 L35.1132229,8.96852334 L33.1697109,9.94957639 C33.0377838,9.75987836 32.902247,9.57274193 32.7628727,9.38852309 L34.2241645,7.73737029 L33.9203763,7.37910969 L32.0898847,8.55606075 C31.8747896,8.30703752 31.6524219,8.06427635 31.4230646,7.82808606 L32.67137,6.0116009 L32.325265,5.69220725 L30.6532646,7.08259685 C30.4096651,6.86096811 30.159603,6.64641973 29.9033965,6.43922472 L30.9178637,4.48623617 L30.5356271,4.21105851 L29.0474382,5.7919624 C28.7784848,5.60150021 28.503346,5.41873154 28.2229679,5.24389951 L28.9905163,3.18427854 L28.5767216,2.95712021 L27.2953862,4.70422481 C27.0914064,4.59416243 26.8845704,4.48859806 26.6754915,4.38712359 L27.2199867,2.26116127 L26.7854279,2.07821892 L25.6956138,3.94732561 C25.3900384,3.82165912 25.0807831,3.70478893 24.7665691,3.59668032 L25.0465178,1.42191717 L24.591992,1.29233445 L23.7405984,3.28031719 C23.4224329,3.19328325 23.1002373,3.11462013 22.7753695,3.04553482 L22.7853399,0.851754968 L22.3184957,0.778579766 L21.7170435,2.85574125 C21.3914309,2.80813005 21.0626732,2.76915016 20.731138,2.73987835 L20.4711737,0.559036796 L19.9989326,0.543024565 L19.6567,2.6796675 C19.5094319,2.67619413 19.3625229,2.6735891 19.2144575,2.6735891 C19.1329514,2.6735891 18.9018029,2.67246025 18.8206648,2.6735891 L18.4758388,0.526099707 Z M19.2141859,5.21011145 C25.4840117,5.21011145 30.8412639,9.08317836 32.9833938,14.5473956 C33.3618193,15.5934007 33.5510013,16.299363 33.5510013,16.6642403 C33.5510013,17.6399097 32.9603079,18.8107823 29.8101153,18.8107823 L21.9574789,18.8107823 C20.7497382,18.8107823 20.2924877,18.6922884 19.9747165,18.4952008 C19.7384426,18.3488503 19.3304128,17.8563266 19.0917559,17.4372126 L18.8648654,16.9988995 C18.8566298,16.9817323 18.8481752,16.9642613 18.841026,16.9463039 L14.7849096,10.2559874 C13.1624981,7.57984346 13.8706714,6.47479115 14.7141536,5.97202099 C14.8563139,5.88772232 15.0778163,5.79958558 15.378652,5.70903485 C16.6296397,5.37709946 17.9192048,5.20948784 19.2142472,5.2105022 L19.2141859,5.21011145 Z M10.2382674,8.90629705 C11.0104242,8.89274224 11.9808835,9.42032094 13.0962804,11.2601992 L16.995833,17.6915761 C17.4246619,18.4725283 17.6388137,19.1248618 17.6388137,19.650643 C17.6388137,20.301231 17.3761596,21.146623 16.8512633,22.1875049 L16.8904787,22.1410138 L13.0965871,28.4001116 C11.4741756,31.0762556 10.1579704,30.9757883 9.31426033,30.4734523 C8.9767938,30.2720664 8.19027733,29.5669899 7.4007119,28.5960096 L7.76298151,29.0876823 C5.69006566,26.5676663 4.44725282,23.3508056 4.44725282,19.8459158 C4.44292809,16.670396 5.48539068,13.5804003 7.41603533,11.0461355 C8.20021256,10.0851411 8.97895783,9.38734129 9.31416397,9.18770944 C9.57787807,9.03061764 9.88766777,8.91258387 10.2386529,8.90643602 L10.2382674,8.90629705 Z M19.1914066,18.9538848 C19.7027702,18.9539811 20.1172882,19.364816 20.1173854,19.8716361 C20.1175477,20.11516 20.020067,20.3487676 19.8463997,20.5210384 C19.6727325,20.6933091 19.4371137,20.7901225 19.1914066,20.790169 C18.9455629,20.7903299 18.7097415,20.6936081 18.5359036,20.5213148 C18.3620658,20.3490216 18.2644769,20.1152955 18.2646393,19.8716361 C18.2646861,19.6281121 18.3623674,19.3945869 18.5361826,19.2224627 C18.7099977,19.0503385 18.9456995,18.9537239 19.1914066,18.9538848 Z M21.9663628,20.7620342 L29.8087486,20.7620342 C32.9589499,20.7620342 33.5496345,21.9329069 33.5496345,22.9085763 C33.5496345,23.127138 33.4854232,23.5474504 33.3527338,24.0809251 C31.52049,30.0991447 25.8834904,34.4810675 19.2138004,34.4810675 C18.3806003,34.4816429 17.5488258,34.4127956 16.7272651,34.2752457 C15.6900186,34.0660534 15.0189056,33.8705461 14.7137506,33.6890452 C13.8795027,33.1918585 13.1815801,32.1027576 14.7360393,29.4897421 L18.8200164,22.772507 C19.4528253,21.6859504 19.6473429,21.4307446 20.0013858,21.2114013 C20.3554111,20.9920668 20.8087365,20.7616695 21.9664504,20.7616695 L21.9663628,20.7620342 Z" id="形状"></path>
            </g>
            <g id="编组-7" transform="translate(29.193548, 29.096774)" fill-rule="nonzero">
                <circle id="椭圆形" fill="#49494E" cx="1.35483871" cy="1.35483871" r="1.35483871"></circle>
                <circle id="椭圆形" fill="url(#linearGradient-3)" cx="1.35483871" cy="1.35483871" r="1"></circle>
            </g>
        </g>
    </g>
</svg>